<svg width="27px" height="33px" viewBox="0 0 27 33" version="1.1" xmlns="http://www.w3.org/2000/svg" xmlns:xlink="http://www.w3.org/1999/xlink">
    <defs>
        <polygon id="path-1" points="0.323407317 0.0252214286 26.6668463 0.0252214286 26.6668463 33 0.323407317 33"></polygon>
    </defs>
    <g id="Page-1" stroke="none" stroke-width="1" fill="none" fill-rule="evenodd">
        <g id="Spa-Desktop" transform="translate(-707.000000, -1889.000000)">
            <g id="3up-routing-buttons-NO-general-button" transform="translate(56.000000, 1088.000000)">
                <g id="Group-8" transform="translate(651.000000, 801.000000)">
                    <g id="Group-3">
                        <mask id="mask-2" fill="white">
                            <use xlink:href="#path-1"></use>
                        </mask>
                        <g id="Clip-2"></g>
                        <path d="M14.3034805,22.6349357 C14.3034805,19.8872929 15.3538463,17.1388643 16.4042122,14.7770071 C16.8895537,13.6683643 17.4552366,12.3185071 17.4552366,11.1132214 C17.4552366,9.66672143 16.8895537,8.07565 16.0808707,6.34000714 C15.3136756,4.65307857 14.2224805,2.14665 13.4947976,0.0252214286 C12.7671146,2.14665 11.6772366,4.65307857 10.9093829,6.34000714 C10.1013585,8.07565 9.53567561,9.66672143 9.53567561,11.1132214 C9.53567561,12.3185071 10.1013585,13.6683643 10.5853829,14.7770071 C11.6370659,17.1388643 12.6874317,19.8872929 12.6874317,22.6349357 L12.0400902,22.6349357 C12.0400902,21.4775786 11.7174073,18.4407929 10.5452122,16.5605786 C9.05033415,14.1500071 7.67662683,12.6555786 4.36352927,12.6555786 C2.10079756,12.6555786 0.323407317,15.1627929 0.323407317,17.8625071 C0.323407317,20.5622214 1.7774561,23.4544357 3.35333415,24.5630786 C3.35333415,21.3817214 4.44452927,19.4048643 7.39411463,19.4048643 C9.25316341,19.4048643 10.5853829,20.9959357 10.5853829,22.6349357 C9.7371878,22.6349357 8.84882195,23.2619357 8.84882195,24.51515 C9.45467561,24.0814357 9.9801878,23.7915071 10.5853829,23.7915071 C10.5853829,24.9488643 10.2627,26.2987214 9.49550488,27.2627929 C9.33350488,26.2987214 9.01016341,25.52715 8.36348049,25.52715 C7.59562683,25.52715 6.8679439,26.5399357 6.8679439,27.6485786 C6.8679439,28.8059357 7.4349439,29.7212929 8.40430976,29.7212929 C10.0203585,29.7212929 11.7174073,27.2627929 11.8794073,23.7915071 L12.6874317,23.7915071 C12.6874317,24.9967929 12.6064317,25.96165 12.3640902,26.6845071 C12.2027488,27.2148643 12.0400902,27.6965071 12.0400902,28.1789357 C12.0400902,28.8538643 12.8487732,31.2644357 13.4947976,33.0000786 C14.142139,31.2644357 14.9495049,28.8538643 14.9495049,28.1789357 C14.9495049,27.6965071 14.7875049,27.2148643 14.6261634,26.6845071 C14.3844805,25.96165 14.3034805,24.9967929 14.3034805,23.7915071 L15.1115049,23.7915071 C15.2728463,27.2627929 16.9698951,29.7212929 18.5866024,29.7212929 C19.5559683,29.7212929 20.1216512,28.8059357 20.1216512,27.6485786 C20.1216512,26.5399357 19.3939683,25.52715 18.6261146,25.52715 C17.9800902,25.52715 17.6574073,26.2987214 17.4954073,27.2627929 C16.7275537,26.2987214 16.4042122,24.9488643 16.4042122,23.7915071 C17.0100659,23.7915071 17.5362366,24.0814357 18.1420902,24.51515 C18.1420902,23.2619357 17.2530659,22.6349357 16.4042122,22.6349357 C16.4042122,20.9959357 17.7377488,19.4048643 19.5967976,19.4048643 C22.5463829,19.4048643 23.6369195,21.3817214 23.6369195,24.5630786 C25.212139,23.4544357 26.6668463,20.5622214 26.6668463,17.8625071 C26.6668463,15.1627929 24.8887976,12.6555786 22.6267244,12.6555786 C19.3129683,12.6555786 17.939261,14.1500071 16.4450415,16.5605786 C15.2728463,18.4407929 14.9495049,21.4775786 14.9495049,22.6349357 L14.3034805,22.6349357 Z" id="Fill-1" fill="#936E2A" mask="url(#mask-2)"></path>
                    </g>
                </g>
            </g>
        </g>
    </g>
</svg>