<?xml version="1.0" encoding="UTF-8"?>
<svg width="62px" height="77px" viewBox="0 0 62 77" version="1.1" xmlns="http://www.w3.org/2000/svg" xmlns:xlink="http://www.w3.org/1999/xlink">
    <!-- Generator: Sketch 54.1 (76490) - https://sketchapp.com -->
    <title>Group 6</title>
    <desc>Created with Sketch.</desc>
    <defs>
        <polygon id="path-1" points="0.000260802939 0.0252352941 61.9612715 0.0252352941 61.9612715 76.8529267 0.000260802939 76.8529267"></polygon>
    </defs>
    <g id="Symbols" stroke="none" stroke-width="1" fill="none" fill-rule="evenodd">
        <g id="CTA/4-Icons/Desktop" transform="translate(-150.000000, -44.000000)">
            <g id="Group" transform="translate(67.000000, 43.000000)">
                <g id="Group-6" transform="translate(83.000000, 0.000000)">
                    <g id="Group-3" transform="translate(0.000000, 1.122168)">
                        <mask id="mask-2" fill="white">
                            <use xlink:href="#path-1"></use>
                        </mask>
                        <g id="Clip-2"></g>
                        <path d="M59.3454982,31.5965382 C59.3184436,31.0046559 59.2913891,30.2969206 59.2519345,29.5891853 C59.1076436,27.0794206 58.65448,24.6293029 57.8586255,22.2560382 C55.3245164,14.6911853 50.61928,9.04306765 43.74968,5.37133235 C38.9700436,2.81683235 33.8623709,1.86247941 28.51008,2.32245 C25.8305527,2.55300882 23.2288073,3.17012647 20.7285164,4.19903824 C14.7145164,6.67324412 10.0149164,10.7739794 6.65902545,16.5000971 C4.21171636,20.6730971 2.89393455,25.2188912 2.65495273,30.0893029 C2.53771636,32.4728912 2.70793455,34.8461559 3.16222545,37.1918912 C4.39208,43.5374206 7.36244364,48.8632147 11.9357891,53.2518618 C12.2773527,53.5787735 12.6155345,53.9102735 12.9345527,54.2601265 C18.3206618,60.1778029 23.7033891,66.1023618 29.0940073,72.0177441 C29.3296073,72.2758324 29.6080436,72.5086853 29.9011345,72.6945088 C30.4726618,73.0581265 31.0982982,73.1326853 31.7205527,72.8562441 C32.0350618,72.7163029 32.3326618,72.5098324 32.6009527,72.2873029 C32.8703709,72.0624794 33.1003345,71.7848912 33.3393164,71.5210676 C39.9169527,64.2831265 46.4945891,57.0451853 53.0654618,49.8003618 C53.4182982,49.4126559 53.7418255,48.9916853 54.0405527,48.5580971 C57.5148073,43.5202147 59.2756073,37.9030676 59.3454982,31.5965382 M31.5492073,76.6449794 C31.1377527,76.9466559 30.74208,76.9156853 30.3475345,76.5807441 C30.2381891,76.4889794 30.1412436,76.3823029 30.0431709,76.2779206 C23.64928,69.3691853 17.2565164,62.46045 10.8626255,55.5517147 C9.98560727,54.6042441 9.07026182,53.6911853 8.23382545,52.7081559 C5.79215273,49.8382147 3.76982545,46.6860971 2.24913455,43.2150971 C1.45891636,41.4130676 0.961789091,39.5158324 0.584152727,37.5853324 C0.124225455,35.2464794 -0.05952,32.8800971 0.0171345455,30.49995 C0.177207273,25.5366265 1.42058909,20.8646559 3.76531636,16.5058324 C6.43469818,11.5425088 10.1513164,7.58056765 14.8892436,4.62345 C18.1526982,2.58512647 21.6765527,1.22356765 25.4506618,0.531891176 C27.9351709,0.0765088235 30.4354618,-0.0829323529 32.9526618,0.0983029412 C41.2708073,0.694773529 48.2565164,4.14512647 53.8906255,10.3736559 C57.74928,14.6384206 60.2067345,19.6625382 61.3430255,25.3450676 C61.8638255,27.9443029 62.0532073,30.5768029 61.9201891,33.2230676 C61.71728,37.2389206 60.8019345,41.08845 59.1053891,44.7246265 C58.1844073,46.6998618 56.9951345,48.51795 55.7382255,50.2913029 C54.9378618,51.4223029 53.9988436,52.4225382 53.0654618,53.4330971 C47.56888,59.3783029 31.7058982,76.5291265 31.5492073,76.6449794" id="Fill-1" fill="#FFFFFF" mask="url(#mask-2)"></path>
                    </g>
                    <path d="M23.7418291,32.6402471 C23.6798291,36.5184529 26.7798291,40.1030118 31.0488109,40.0513941 C35.2163382,40.0009235 38.2554655,36.5769529 38.2385564,32.6826882 C38.22052,28.5383647 34.9412836,25.2600706 30.9439745,25.3036588 C26.9387745,25.3472471 23.6888473,28.6576588 23.7418291,32.6402471 M30.94172,42.3076588 C25.51052,42.2445706 21.3384836,37.6792765 21.5323745,32.2789235 C21.7104836,27.3178941 25.7844473,23.0095412 31.0803745,23.0554235 C36.1722655,23.1001588 40.5133927,27.3006882 40.4412473,32.8386882 C40.3713564,38.0876294 36.1677564,42.2916 30.94172,42.3076588" id="Fill-4" fill="#FFFFFF"></path>
                </g>
            </g>
        </g>
    </g>
</svg>